
        <svg xmlns="http://www.w3.org/2000/svg" xmlns:xlink="http://www.w3.org/1999/xlink" version="1.1" width="3135.5611968507988" height="3142.7509293680296" viewBox="0 0 3135.5611968507988 3142.7509293680296">
			
			<g transform="scale(7.137546468401487) translate(10, 10)">
				<defs id="SvgjsDefs1403"/><g id="SvgjsG1404" featureKey="rootContainer" transform="matrix(3.895389469653109,0,0,3.895389469653109,0,0)" fill="#000"><path xmlns="http://www.w3.org/2000/svg" d="M4.6 5.1h98.3v24.1c.1 2.9.1 6 .2 8.1s.1 1 .1.8a61.5 61.5 0 0 0 .3-6.7v-4.2c.1-6.7 0-13.5 0-20.2V4.3H4.6V.8h102.3v24.1c.1 2.9.1 6 .2 8.1s.1 1 .1.8a61.5 61.5 0 0 0 .3-6.7v-4.2c.1-6.7 0-13.5 0-20.2V0H4v4.5H0v47.1c.1 2.7.1 5.8 0 8.7v47.6h43.5l16.7-.2h10.9a64.7 64.7 0 0 0 8.1-.3H.7V36.7C.6 31.5.6 26.3.6 21V5.1H4v42.1c-.1 2.7-.1 5.8-.1 8.8v47.6h43.6l16.7-.2h10.9a64.7 64.7 0 0 0 8.1-.3H4.7V16.7c0-5.3-.1-7.7-.1-11.6zm103 53.2v-4.7l-.2-7.8c-.1-3.2-.2-3.8-.3-3.8 0 1.9-.1 3.9-.1 5.9v17.3c0 3.1 0 6.3-.1 9.2v15.7c0 3.3 0 6.3.1 9.3v3.9l-1.9-.2h-1.7q.1-2.4.1-5.2V73.6c0-3.5.1-6.9.1-10.8v-4.7l-.2-7.8c-.1-3.2-.2-3.8-.3-3.8 0 1.9-.1 3.9-.1 5.9v17.3c0 3.1 0 6.3-.1 9.2v15.7c0 3.3 0 5.8.1 8.5H92.4c-.4.1-1.3.1-.9.1l3.5.2h8v4.2l-1.9-.2H88.4c-.4.1-1.3.1-.9.1l3.5.2h12.1c.1.3.1.1.2-1.2s.1-2 .1-3h3.7c.1.3.1.1.2-1.2s.1-5.3.2-8.7V69.3c.1-3.8.2-7.2.1-11z"/></g><g id="SvgjsG1405" featureKey="symbolFeature-0" transform="matrix(0.36272826363042304,0,0,0.36272826363042304,117.13553711987846,72.33644439896288)" fill="#000"><title xmlns="http://www.w3.org/2000/svg">dgital design 2</title><path xmlns="http://www.w3.org/2000/svg" d="M382.3,115.7c0.8-1.8,0.7-3.9-0.3-5.6l-59.3-97.1c-1.1-1.8-3-2.9-5.1-2.9s-4,1.1-5.1,2.9L253.2,110c-1,1.7-1.2,3.8-0.3,5.6  l30.4,65.8v17.1c-3.1,0.2-5.6,2.8-5.6,6v34.2c0,3.3,2.7,6,6,6h26.8v44.2c0,13.3-10.8,24.1-24.1,24.1h-0.2c-6.4,0-12.5-2.5-17-7.1  s-7.1-10.6-7.1-17v-1.4c0-19.9-16.2-36.1-36.1-36.1c-19.8,0-36,16.1-36.1,35.9l-0.1,27h-10.6c-13.4,0-26,5.3-35.4,14.7  c-9.5,9.5-14.6,22.1-14.6,35.5V452c0,27.6,22.5,50,50.1,50c0,0,0.1,0,0.1,0H212c27.6,0,50.1-22.6,50-50.2v-87.4  c0-27.6-22.5-50-50.1-50c0,0-0.1,0-0.1,0h-10.1l0.1-27c0.1-13.2,10.9-24,24.1-24c13.3,0,24.1,10.8,24.1,24.1v1.4  c0,9.6,3.8,18.7,10.6,25.5c6.8,6.8,15.9,10.6,25.5,10.6h0.2c19.9,0,36.1-16.2,36.1-36.1v-44.2h29.2c3.3,0,6-2.7,6-6v-34.2  c0-3.2-2.5-5.8-5.6-6v-17.1L382.3,115.7z M152.2,337.6c7.2-7.2,16.8-11.2,26.9-11.2h10.5v46.5h-48.6v-8.4  C141.1,354.4,145.1,344.8,152.2,337.6z M212,490h-32.7c0,0,0,0-0.1,0c-21,0-38.1-17.1-38.1-38.1v-67H250v66.9  C250,472.8,233,490,212,490z M211.8,326.4C211.9,326.4,211.9,326.4,211.8,326.4c10.2,0,19.8,4,27,11.1c7.2,7.2,11.2,16.8,11.2,26.9  v8.5h-48.3v-46.5H211.8z M295.3,198.6v-12.4H340v12.4H295.3z M317.6,103.9c6.6,0,12,5.4,12,12s-5.4,12-12,12s-12-5.4-12-12  S311,103.9,317.6,103.9z M311.6,37.4v55.3c-10.4,2.7-18,12.1-18,23.3c0,13.3,10.8,24,24,24s24-10.8,24-24c0-11.2-7.7-20.6-18-23.3  V37.4l46.5,76.2l-28,60.6h-49l-28-60.6L311.6,37.4z M345.6,232.7h-56v-22.2h56V232.7z"/></g><g id="SvgjsG1406" featureKey="nameFeature-0" transform="matrix(0.9000089333467276,0,0,0.9000089333467276,108.55998622163447,267.1599326215541)" fill="#000"><path d="M1.6 23.16 c0 -11.16 0 -15.56 5.6 -15.56 c4.12 0 5.24 2.52 5.52 8.56 l-3.72 0 c-0.16 -4.36 -0.6 -5.36 -1.8 -5.36 c-1.84 0 -1.84 1.96 -1.84 12.36 c0 11.56 0 13.24 1.84 13.24 c1.32 0 1.72 -1 1.8 -6.16 l3.76 0 c-0.24 7.4 -1.24 10.16 -5.56 10.16 c-5.6 0 -5.6 -4.44 -5.6 -17.24 z M17.660000000000004 23.16 c0 -11.16 0.24 -15.56 6.24 -15.56 s6.24 4.4 6.24 15.56 c0 12.8 -0.24 17.24 -6.24 17.24 s-6.24 -4.44 -6.24 -17.24 z M21.660000000000004 23.16 c0 11.56 0 13.24 2.24 13.24 s2.24 -1.68 2.24 -13.24 c0 -10.4 0 -12.36 -2.24 -12.36 s-2.24 1.96 -2.24 12.36 z M36.24 40 l0 -32 l6 0 c6 0 6 4.4 6 15.16 c0 12.4 0 16.84 -6 16.84 l-6 0 z M40.24 36 l2 0 c2.24 0 2.24 -1.68 2.24 -12.84 c0 -10 0 -11.96 -2.24 -11.96 l-2 0 l0 24.8 z M54.34 40 l0 -32 l4 0 l0 32 l-4 0 z M64.84 40 l0 -32 l3.6 0 l5.24 19.6 l-0.04 -0.4 l0 -19.2 l4 0 l0 32 l-3.6 0 l-5.24 -17.6 l0.04 0.4 l0 17.2 l-4 0 z M83.74 23.16 c0 -11.16 0 -15.56 6 -15.56 c4.56 0 5.64 2.52 5.92 8.56 l-3.72 0 c-0.16 -4.36 -0.6 -5.36 -2.2 -5.36 c-2.24 0 -2.24 1.96 -2.24 12.36 c0 11.56 0 13.24 2.24 13.24 c2.12 0 2.24 -1.52 2.24 -10 l-2.64 0 l0 -3.2 l6.4 0 l0 1.56 c0 11.2 0 15.64 -6 15.64 s-6 -4.44 -6 -17.24 z M112.74 40 l0 -32 l6.48 0 c4.12 0 5.2 2.52 5.52 8.56 l0 1.28 c-0.32 6.04 -1.4 8.56 -5.52 8.56 l-2.48 0 l0 13.6 l-4 0 z M116.74 23.2 l2.48 0 c1.2 0 1.64 -1 1.8 -5.36 l0 -1.28 c-0.16 -4.36 -0.6 -5.36 -1.8 -5.36 l-2.48 0 l0 12 z M130.04 40 l0 -16.8 c0 -11.16 0 -15.56 6 -15.56 s6 4.4 6 15.56 l0 16.8 l-4 0 l0 -9.2 l-4 0 l0 9.2 l-4 0 z M134.04 27.6 l4 0 l0 -4.4 c0 -10.4 0 -12.36 -2 -12.36 s-2 1.96 -2 12.36 l0 4.4 z M147.73999999999998 30.240000000000002 l4.04 0 c0.08 5.16 0.48 6.16 1.92 6.16 c1.96 0 1.96 -1.64 1.96 -6 c0 -6.4 -7.92 -4.68 -7.92 -13.2 c0 -5 0 -9.6 6 -9.6 c4.44 0 5.64 2.52 5.92 8.56 l-4 0 c-0.16 -4.36 -0.64 -5.36 -1.92 -5.36 c-1.96 0 -1.96 2.16 -1.96 6.4 c0 6.2 7.96 4 7.96 13.2 c0 5.6 0 10 -6.04 10 c-4.64 0 -5.72 -2.76 -5.96 -10.16 z M164.64 30.240000000000002 l4.04 0 c0.08 5.16 0.48 6.16 1.92 6.16 c1.96 0 1.96 -1.64 1.96 -6 c0 -6.4 -7.92 -4.68 -7.92 -13.2 c0 -5 0 -9.6 6 -9.6 c4.44 0 5.64 2.52 5.92 8.56 l-4 0 c-0.16 -4.36 -0.64 -5.36 -1.92 -5.36 c-1.96 0 -1.96 2.16 -1.96 6.4 c0 6.2 7.96 4 7.96 13.2 c0 5.6 0 10 -6.04 10 c-4.64 0 -5.72 -2.76 -5.96 -10.16 z M182.34 40 l0 -32 l4 0 l0 32 l-4 0 z M192.44 23.16 c0 -11.16 0.24 -15.56 6.24 -15.56 s6.24 4.4 6.24 15.56 c0 12.8 -0.24 17.24 -6.24 17.24 s-6.24 -4.44 -6.24 -17.24 z M196.44 23.16 c0 11.56 0 13.24 2.24 13.24 s2.24 -1.68 2.24 -13.24 c0 -10.4 0 -12.36 -2.24 -12.36 s-2.24 1.96 -2.24 12.36 z M211.02 40 l0 -32 l3.6 0 l5.24 19.6 l-0.04 -0.4 l0 -19.2 l4 0 l0 32 l-3.6 0 l-5.24 -17.6 l0.04 0.4 l0 17.2 l-4 0 z"/></g><g id="SvgjsG1407" featureKey="sloganFeature-0" transform="matrix(1.694567790375416,0,0,1.694567790375416,107.84810489570185,311.6635485546312)" fill="#000"><path d="M2.26 17.68 c-0.44 -0.82 0.68 -1.42 1.2 -0.6 c0.26 0.42 1.04 1.14 2.28 1.14 c0.52 0 1.82 -0.38 2 -1.86 c0.12 -0.9 -0.74 -1.78 -2.22 -2.52 c-2.08 -0.98 -3.66 -1.84 -3.66 -3.56 c0 -2.04 1.72 -3 3.56 -3 c1.66 0 2.58 1.02 2.9 1.54 c0.46 0.74 -0.54 1.46 -1.1 0.74 c-0.28 -0.36 -0.82 -0.96 -1.8 -0.96 c-1.1 0 -2.24 0.52 -2.24 1.68 c0 0.92 1.02 1.44 2.54 2.16 c1.78 0.88 3.64 1.74 3.36 4.08 c-0.22 1.84 -1.62 3.02 -3.34 3.02 c-1.3 0 -2.9 -0.7 -3.48 -1.86 z M13.18 7.359999999999999 l6.04 0 c0.42 0 0.62 0.34 0.62 0.68 s-0.2 0.66 -0.62 0.66 l-2.28 0 l0 10.06 c0 0.42 -0.34 0.64 -0.68 0.64 s-0.66 -0.22 -0.66 -0.64 l0 -10.06 l-2.42 0 c-0.42 0 -0.62 -0.32 -0.62 -0.66 s0.2 -0.68 0.62 -0.68 z M25.419999999999998 15.9 l0 2.86 c0 0.44 -0.34 0.64 -0.66 0.64 c-0.34 0 -0.66 -0.2 -0.66 -0.64 l0 -10.74 c0 -0.4 0.22 -0.66 0.66 -0.66 l2.7 0 c0.76 0 3.16 0.22 3.16 2.92 l0 2.5 c0 1.52 -0.56 2.48 -1.84 2.9 l1.36 2.74 c0.28 0.54 -0.14 0.98 -0.58 0.98 c-0.24 0 -0.54 -0.16 -0.7 -0.5 l-1.46 -3 l-1.98 0 z M29.299999999999997 12.780000000000001 l0 -2.5 c0 -0.48 -0.18 -1.58 -1.84 -1.58 l-2.04 0 l0 5.86 l1.86 0 c0.98 0 2.02 -0.22 2.02 -1.78 z M35.44 18.7 l0 -10.64 c0 -0.46 0.36 -0.7 0.7 -0.7 l4.6 0 c0.44 0 0.66 0.32 0.66 0.66 s-0.22 0.68 -0.66 0.68 l-3.96 0 l0 3.88 l3.14 0 c0.46 0 0.68 0.32 0.68 0.66 s-0.24 0.7 -0.68 0.7 l-3.14 0 l0 4.14 l3.96 0 c0.42 0 0.64 0.34 0.64 0.66 c0 0.34 -0.22 0.66 -0.64 0.66 l-4.6 0 c-0.34 0 -0.7 -0.12 -0.7 -0.7 z M51.85999999999999 18.86 l-0.78 -2.54 l-3.72 0 l-0.74 2.5 c-0.26 0.86 -1.58 0.6 -1.3 -0.28 c1.04 -3.5 2.06 -7.06 3.08 -10.6 c0.12 -0.38 0.44 -0.58 0.76 -0.58 c0.3 0 0.62 0.2 0.74 0.58 l3.18 10.6 c0.22 0.76 -0.96 1.18 -1.22 0.32 z M49.199999999999996 10.06 l-1.44 4.92 l2.94 0 c-0.5 -1.68 -0.96 -3.12 -1.5 -4.92 z M66.11999999999999 18.76 l0 -8.92 l-3.18 9 c-0.18 0.5 -0.84 0.62 -1.04 0 l-3.08 -9 l0 8.92 c0 0.42 -0.32 0.64 -0.66 0.64 s-0.68 -0.22 -0.68 -0.64 l0 -10.74 c0 -0.38 0.28 -0.66 0.68 -0.66 l0.64 0 c0.44 0 0.68 0.32 0.78 0.62 c0.96 2.86 1.84 5.4 2.82 8.28 l2.9 -8.34 c0.1 -0.28 0.28 -0.56 0.7 -0.56 l0.8 0 c0.58 0 0.66 0.32 0.66 0.64 l0 10.76 c0 0.42 -0.34 0.64 -0.68 0.64 s-0.66 -0.22 -0.66 -0.64 z  M72.5 18.76 l0 -10.76 c0 -0.42 0.32 -0.64 0.64 -0.64 s0.66 0.22 0.66 0.64 l0 10.06 l3.98 0 c0.44 0 0.68 0.34 0.68 0.68 s-0.24 0.66 -0.68 0.66 l-4.62 0 c-0.4 0 -0.66 -0.32 -0.66 -0.64 z M82.42 18.78 l0 -10.78 c0 -0.42 0.32 -0.64 0.64 -0.64 s0.66 0.22 0.66 0.64 l0 10.78 c0 0.86 -1.3 0.86 -1.3 0 z M95.5 8 l0 10.76 c0 0.42 -0.32 0.64 -0.64 0.64 c-0.24 0 -0.56 -0.18 -0.7 -0.44 c-1.5 -2.94 -2.62 -5.2 -4.12 -8.16 l0 7.96 c0 0.42 -0.32 0.64 -0.66 0.64 c-0.32 0 -0.66 -0.22 -0.66 -0.64 l0 -10.76 c0 -0.7 1 -0.74 1.22 -0.32 l4.22 8.34 l0 -8.02 c0 -0.42 0.32 -0.64 0.66 -0.64 s0.68 0.22 0.68 0.64 z M100.55999999999999 18.7 l0 -10.64 c0 -0.46 0.36 -0.7 0.7 -0.7 l4.6 0 c0.44 0 0.66 0.32 0.66 0.66 s-0.22 0.68 -0.66 0.68 l-3.96 0 l0 3.88 l3.14 0 c0.46 0 0.68 0.32 0.68 0.66 s-0.24 0.7 -0.68 0.7 l-3.14 0 l0 4.14 l3.96 0 c0.42 0 0.64 0.34 0.64 0.66 c0 0.34 -0.22 0.66 -0.64 0.66 l-4.6 0 c-0.34 0 -0.7 -0.12 -0.7 -0.7 z M111.13999999999999 18.78 l0 -10.76 c0 -0.54 0.38 -0.66 0.66 -0.66 l3.2 0 c2.64 0 3.94 1.26 3.94 3.74 l0 5.12 c0 1.56 -1.22 3.2 -3.88 3.2 l-3.26 0 c-0.28 0 -0.66 -0.16 -0.66 -0.64 z M117.61999999999998 16.22 l0 -5.12 c0 -1.64 -0.88 -2.4 -2.62 -2.4 l-2.54 0 l0 9.42 l2.6 0 c1.22 0 2.56 -0.66 2.56 -1.9 z"/></g>
			</g>
		</svg>
	